# xmcd
#
# Track frame offsets:
# 150
# 25084
# 67547
# 144909
# 201825
# 309579
#
# Disc length: 4532 seconds
#
# Revision: 0
# Processed by: cddbd v1.5.2PL0 Copyright (c) Steve Scherf et al.
# Submitted via: Audion 3.0.2 (http://www.panic.com/audion/)
#
DISCID=4411b206
DTITLE=Widespread Panic - Live At Myrtle Beach(disc1)
DYEAR=1900
DGENRE=
TTITLE0=Ain't Life Grand
TTITLE1=Conrad the Caterpillar
TTITLE2=Dirty Business
TTITLE3=Don't Wanna Lose You
TTITLE4=Henry Parsons Died
TTITLE5=Papa's Home
EXTD=
EXTT0=
EXTT1=
EXTT2=
EXTT3=
EXTT4=
EXTT5=
PLAYORDER=
